<svg width="784" height="210" viewBox="0 0 784 210" fill="none" xmlns="http://www.w3.org/2000/svg">
<path fill-rule="evenodd" clip-rule="evenodd" d="M90.1453 208.95C121.725 213.438 154.956 203.537 179.246 179.246C220.251 138.241 220.251 71.7589 179.246 30.7538C138.241 -10.2513 71.7589 -10.2513 30.7538 30.7538C6.46319 55.0444 -3.43823 88.2754 1.04989 119.855C19.0921 101.812 53.6683 107.126 78.2714 131.729C102.874 156.332 108.188 190.908 90.1453 208.95ZM161.427 161.427C159.811 163.043 157.376 160.888 158.408 158.849C173.56 128.909 168.627 91.4105 143.608 66.392C118.589 41.3734 81.0911 36.4397 51.1507 51.5919C49.112 52.6234 46.9573 50.1885 48.5729 48.5729C79.7367 17.4091 130.263 17.4091 161.427 48.5729C192.591 79.7367 192.591 130.263 161.427 161.427Z" fill="#1B0449"/>
<path d="M78.2714 197.065C66.79 208.547 42.8562 203.228 24.8141 185.186C6.77207 167.144 1.45339 143.21 12.9347 131.729C24.4161 120.247 48.3499 125.566 66.392 143.608C84.434 161.65 89.7527 185.584 78.2714 197.065Z" fill="#1B0449"/>
<path d="M336.59 49C348.624 49 357.296 51.7796 362.608 57.3387C368.029 62.8978 370.739 71.7815 370.739 83.9898V100.177C370.739 112.494 368.029 121.432 362.608 126.991C357.296 132.441 348.624 135.166 336.59 135.166H309.596V159.201H280V49H336.59ZM340.981 85.7883C340.981 82.5182 340.601 80.1202 339.842 78.5942C339.192 76.9591 338.054 75.8691 336.427 75.3241C334.801 74.6701 332.416 74.3431 329.272 74.3431H309.596V110.15H329.272C332.525 110.15 334.91 109.932 336.427 109.496C338.054 108.951 339.192 107.97 339.842 106.553C340.601 105.027 340.981 102.629 340.981 99.3591V85.7883Z" fill="#1B0449"/>
<path d="M489.667 70.419C506.687 70.419 515.197 80.7197 515.197 101.321V159.201H487.065V106.063C487.065 98.8686 484.68 95.2715 479.91 95.2715C477.742 95.2715 475.086 96.089 471.942 97.7241C468.906 99.3591 466.142 101.267 463.648 103.447V159.201H435.516V106.063C435.516 102.684 434.92 100.068 433.727 98.2146C432.535 96.2525 430.746 95.2715 428.361 95.2715C426.193 95.2715 423.537 96.089 420.393 97.7241C417.357 99.2501 414.593 101.103 412.099 103.283V159.201H383.967V72.2175H408.197L409.498 81.7007C414.484 78.2126 419.254 75.4876 423.808 73.5255C428.361 71.4545 433.077 70.419 437.955 70.419C448.688 70.419 456.06 74.3976 460.071 82.3547C465.383 78.6487 470.37 75.7601 475.031 73.6891C479.693 71.509 484.571 70.419 489.667 70.419Z" fill="#1B0449"/>
<path d="M586.111 70.419C605.408 70.419 615.057 81.8642 615.057 104.755V126.337C615.057 136.365 612.564 144.595 607.577 151.026C602.698 157.457 593.375 160.673 579.607 160.673C570.067 160.673 561.177 160.073 552.938 158.874C544.807 157.675 537.977 156.149 532.448 154.296V49H560.581V79.2482C570.121 73.362 578.631 70.419 586.111 70.419ZM586.762 104.918C586.762 101.757 586.057 99.1956 584.648 97.2336C583.239 95.1625 581.07 94.127 578.143 94.127C575.216 94.127 572.398 94.89 569.687 96.4161C567.085 97.8331 564.05 99.9041 560.581 102.629V135.984C562.532 136.747 564.7 137.346 567.085 137.782C569.579 138.109 571.855 138.273 573.915 138.273C579.336 138.273 582.805 137.292 584.323 135.33C585.949 133.259 586.762 130.261 586.762 126.337V104.918Z" fill="#1B0449"/>
<path d="M629.428 107.207C629.428 98.4871 630.458 91.5654 632.518 86.4423C634.578 81.2102 638.589 77.2316 644.551 74.5066C650.622 71.7815 659.458 70.419 671.057 70.419C682.657 70.419 691.493 71.7815 697.564 74.5066C703.635 77.2316 707.7 81.2102 709.76 86.4423C711.928 91.5654 713.012 98.4871 713.012 107.207V124.375C713.012 133.095 711.982 140.017 709.922 145.14C707.863 150.154 703.797 154.024 697.726 156.749C691.655 159.365 682.766 160.673 671.057 160.673C659.674 160.673 650.947 159.419 644.876 156.912C638.914 154.296 634.849 150.427 632.68 145.304C630.512 140.181 629.428 133.204 629.428 124.375V107.207ZM657.723 126.174C657.723 129.008 657.994 131.242 658.536 132.877C659.078 134.403 660.325 135.657 662.276 136.638C664.228 137.51 667.263 137.946 671.383 137.946C675.285 137.946 678.213 137.564 680.164 136.801C682.115 135.929 683.362 134.676 683.904 133.041C684.555 131.406 684.88 129.171 684.88 126.337V105.082C684.88 102.139 684.555 99.8496 683.904 98.2146C683.362 96.5796 682.115 95.326 680.164 94.454C678.213 93.582 675.285 93.146 671.383 93.146C667.263 93.146 664.228 93.6365 662.276 94.6175C660.325 95.4895 659.078 96.7431 658.536 98.3781C657.994 100.013 657.723 102.248 657.723 105.082V126.174Z" fill="#1B0449"/>
<path d="M764.649 95.2715V126.991C764.649 130.806 765.245 133.64 766.438 135.493C767.739 137.346 769.744 138.273 772.454 138.273C773.755 138.273 775.544 138.218 777.821 138.109C780.206 138 782.265 137.837 784 137.619V159.038C781.832 159.474 778.254 159.91 773.267 160.346C768.389 160.782 764.595 161 761.884 161C754.621 161 749.2 159.746 745.623 157.239C742.045 154.732 739.714 151.353 738.63 147.102C737.546 142.851 737.004 137.183 737.004 130.098V95.2715H722.857V72.381H737.004V52.2701H764.649V72.381H784V95.2715H764.649Z" fill="#1B0449"/>
</svg>
