<svg width="502" height="460" viewBox="0 0 502 460" fill="none" xmlns="http://www.w3.org/2000/svg">
<path fill-rule="evenodd" clip-rule="evenodd" d="M231.271 277.394C273.21 283.352 317.342 270.208 349.601 237.96C404.058 183.524 404.058 95.2643 349.601 40.8276C295.145 -13.6092 206.854 -13.6092 152.397 40.8276C120.138 73.0748 106.989 117.191 112.949 159.114C136.91 135.162 182.828 142.216 215.502 174.878C248.176 207.54 255.232 253.442 231.271 277.394ZM325.937 214.304C323.791 216.449 320.557 213.588 321.927 210.882C342.05 171.134 335.498 121.353 302.272 88.1394C269.047 54.9257 219.247 48.376 179.485 68.4914C176.777 69.8608 173.916 66.6283 176.062 64.4835C217.448 23.1116 284.55 23.1116 325.937 64.4835C367.324 105.855 367.324 172.932 325.937 214.304Z" fill="#1B0449"/>
<path d="M215.502 261.616C200.255 276.858 168.469 269.798 144.509 245.846C120.548 221.894 113.485 190.12 128.733 174.878C143.98 159.636 175.765 166.697 199.726 190.648C223.687 214.6 230.75 246.374 215.502 261.616Z" fill="#1B0449"/>
<path d="M56.3655 348.485C68.3512 348.485 76.9896 351.252 82.2806 356.787C87.6796 362.323 90.3791 371.168 90.3791 383.323V399.44C90.3791 411.704 87.6796 420.603 82.2806 426.138C76.9896 431.565 68.3512 434.278 56.3655 434.278H29.4785V458.209H0V348.485H56.3655ZM60.7387 385.114C60.7387 381.858 60.3607 379.47 59.6049 377.951C58.957 376.323 57.8232 375.238 56.2035 374.695C54.5838 374.044 52.2083 373.718 49.0768 373.718H29.4785V409.371H49.0768C52.3162 409.371 54.6918 409.153 56.2035 408.719C57.8232 408.177 58.957 407.2 59.6049 405.789C60.3607 404.27 60.7387 401.882 60.7387 398.626V385.114Z" fill="#1B0449"/>
<path d="M208.835 369.811C225.788 369.811 234.264 380.067 234.264 400.58V458.209H206.243V405.301C206.243 398.138 203.868 394.556 199.117 394.556C196.957 394.556 194.311 395.37 191.18 396.998C188.157 398.626 185.403 400.525 182.92 402.696V458.209H154.899V405.301C154.899 401.936 154.305 399.331 153.117 397.486C151.929 395.533 150.148 394.556 147.772 394.556C145.613 394.556 142.967 395.37 139.836 396.998C136.812 398.517 134.059 400.362 131.575 402.533V458.209H103.554V371.602H127.688L128.984 381.044C133.951 377.571 138.702 374.858 143.237 372.904C147.772 370.842 152.469 369.811 157.328 369.811C168.018 369.811 175.361 373.772 179.356 381.695C184.647 378.005 189.614 375.129 194.257 373.067C198.901 370.896 203.76 369.811 208.835 369.811Z" fill="#1B0449"/>
<path d="M304.897 369.811C324.117 369.811 333.727 381.207 333.727 403.998V425.487C333.727 435.472 331.244 443.666 326.277 450.069C321.418 456.473 312.131 459.674 298.418 459.674C288.916 459.674 280.061 459.077 271.855 457.884C263.756 456.69 256.954 455.17 251.447 453.325V348.485H279.467V378.602C288.97 372.741 297.446 369.811 304.897 369.811ZM305.545 404.161C305.545 401.014 304.843 398.463 303.439 396.51C302.035 394.448 299.876 393.417 296.96 393.417C294.045 393.417 291.237 394.176 288.538 395.696C285.946 397.107 282.923 399.169 279.467 401.882V435.092C281.411 435.852 283.571 436.449 285.946 436.883C288.43 437.209 290.697 437.371 292.749 437.371C298.148 437.371 301.603 436.395 303.115 434.441C304.735 432.379 305.545 429.394 305.545 425.487V404.161Z" fill="#1B0449"/>
<path d="M348.041 406.44C348.041 397.758 349.067 390.866 351.119 385.765C353.17 380.556 357.166 376.594 363.105 373.881C369.151 371.168 377.952 369.811 389.506 369.811C401.06 369.811 409.86 371.168 415.907 373.881C421.954 376.594 426.003 380.556 428.055 385.765C430.214 390.866 431.294 397.758 431.294 406.44V423.534C431.294 432.216 430.268 439.108 428.216 444.209C426.165 449.201 422.116 453.054 416.069 455.767C410.022 458.372 401.168 459.674 389.506 459.674C378.168 459.674 369.475 458.426 363.429 455.93C357.49 453.325 353.44 449.473 351.281 444.372C349.121 439.271 348.041 432.325 348.041 423.534V406.44ZM376.224 425.324C376.224 428.146 376.494 430.371 377.034 431.999C377.574 433.519 378.816 434.767 380.759 435.743C382.703 436.612 385.726 437.046 389.83 437.046C393.717 437.046 396.632 436.666 398.576 435.906C400.52 435.038 401.761 433.79 402.301 432.162C402.949 430.534 403.273 428.309 403.273 425.487V404.324C403.273 401.394 402.949 399.114 402.301 397.486C401.761 395.858 400.52 394.61 398.576 393.742C396.632 392.874 393.717 392.44 389.83 392.44C385.726 392.44 382.703 392.928 380.759 393.905C378.816 394.773 377.574 396.021 377.034 397.649C376.494 399.277 376.224 401.502 376.224 404.324V425.324Z" fill="#1B0449"/>
<path d="M482.726 394.556V426.138C482.726 429.937 483.32 432.759 484.507 434.604C485.803 436.449 487.801 437.371 490.5 437.371C491.796 437.371 493.578 437.317 495.845 437.209C498.221 437.1 500.272 436.937 502 436.72V458.046C499.84 458.481 496.277 458.915 491.31 459.349C486.451 459.783 482.672 460 479.972 460C472.737 460 467.339 458.752 463.775 456.256C460.212 453.76 457.89 450.395 456.81 446.162C455.731 441.93 455.191 436.286 455.191 429.232V394.556H441.099V371.765H455.191V351.741H482.726V371.765H502V394.556H482.726Z" fill="#1B0449"/>
</svg>
